<?xml version="1.0" encoding="UTF-8"?>
<svg id="Layer_1" xmlns="http://www.w3.org/2000/svg" version="1.1" viewBox="0 0 1259.86 582.15">
  <!-- Generator: Adobe Illustrator 30.3.0, SVG Export Plug-In . SVG Version: 2.1.3 Build 182)  -->
  <defs>
    <style>
      .st0 {
        fill: none;
      }

      .st1 {
        fill: #ed1c24;
      }

      .st2 {
        fill: #444545;
      }

      .st3 {
        fill: #fff;
      }
    </style>
  </defs>
  <path class="st0" d="M382.65,285.74l-295.41.02.02-204.04,295.4.06.07-81.74H48.13C23.31-.71.3,18.47.28,44.25L.12,320.7c0,25.28,20.68,45.16,45.2,46.89h337.44l-.12-81.84h0ZM638.19,163.87l-.07,79.03h130.45c21.53.59,41.56-15.87,41.61-38.14l.32-165.76c-1.33-19.5-17.04-38.62-38.14-38.64L436.67.07l-.04,367.56,85.92-.04-.05-285.86h201.98l.08,82.08-86.37.05h0ZM1178.71,367.61h80.47V.05h-77.64l-115.66,202.42-59.12-101.8L948.82,0l-83.48.07v367.54l84.39-.06.11-201.53,87.07,153.2,58.68-.11,83.09-151.39.03,199.89h0ZM624.81,242.77l.03-78.88-64.59.03-.07,78.81,64.62.05h.01ZM43.01,474.15c-5.96,7.21-13.73,8.59-20.63,5.71-6.75-2.82-10.66-9.52-10.75-17.16-.1-8.07,4.14-15.1,11.15-17.86,7.21-2.84,15.2-.33,20.39,5.86l7.85-7.78c-11.68-12.67-32.11-12.87-43.65.1-9.12,10.25-9.84,25.95-1.7,37.07,11.07,15.12,34.37,15.71,45.56,1.21l-8.2-7.15h-.02ZM150.49,491.68c17.19-.76,28.66-14.54,27.78-31.13-.81-15.23-13.04-26.53-28.26-27.11-15.97-.61-28.44,10.63-29.75,26.41-1.48,17.77,11.58,32.66,30.24,31.83h-.01ZM398.78,490.18c7.72-2.33,11.96-8.86,11.83-15.94-.14-7.29-4.8-13.1-12.25-15.15l-15-4.12c-2.03-.56-4.07-3.82-3.96-5.77.09-1.58,2.16-4.4,3.78-4.86,7.41-2.13,13.58-.17,18.47,5.78l7.59-7.93c-8.44-8.85-20.11-10.71-30.81-6.89-6.7,2.39-10.42,8.37-10.42,14.95,0,6.03,3.31,12.41,9.91,14.32l16.37,4.74c2.06.6,4.56,3.15,4.73,4.89.15,1.57-1.41,5.07-2.84,5.73-8.25,3.82-17.27.98-21.91-6.15l-8.22,7.26c7.47,9.93,20.5,12.85,32.73,9.16v-.02ZM502.25,491.65c17.5,1.13,30.88-12.1,30.91-28.98.03-17.91-14.74-30.96-32.45-29.1-13.65,1.44-23.71,11.23-25.49,24.74-2.26,17.15,8.95,32.16,27.04,33.34h0ZM298.55,490.7l-.07-56.28-11.28.05-.39,35.7-25.66-35.81-10.49.1v56.25l11.17.04.2-36.51,25.79,36.5,10.74-.04h0ZM640.67,480.68l-26.71-.1v-46.07l-11.38-.1-.02,56.37,38.19-.02-.09-10.07h.01ZM718.77,490.59l-.06-56.18-11.41.07-.1,56.27,11.56-.16h0ZM837.33,462.12c-.15-15.25-10.46-27.49-25.89-27.6l-23.99-.17-.03,56.39,22.02.07c16.42.05,28.05-11.76,27.88-28.69h.01ZM933.31,479.72l4.25,11.06,11.95-.15-22.52-56.31-12.25.28-22.11,56.07,12.05.13,4.42-11.22,24.21.13h0ZM1026.52,490.7l.04-46.49,16.89.09-.09-9.92-44.99-.03.14,9.95,16.73.2v46.23l11.29-.02h-.01ZM1141.57,467.19l-.48-10.09-24.26.1-.11-12.92h27.9l-.15-9.92-38.96.03-.11,56.35,39.85.03-.11-10.11-28.46.04.27-13.81,24.61.3h0ZM1259.86,462.18c-.07-14.56-9.01-27.28-23.84-27.46l-25.68-.32-.02,56.37,24.8-.24c15.38-.15,24.82-13.25,24.74-28.35ZM914.48,566.98c-.55,3.24-1.7,5.65-3.77,6.71-6.33,3.25-13.37.86-16.46-4.47-3.33-5.76-2.03-13.18,3.29-16.99,5.04-3.6,11.61-2.87,16.69,1.83l5.14-5.01c-5.87-5.5-11.67-6.83-18.42-5.86-5.77.83-11.62,4.5-14.39,10.47-3.35,7.22-2.55,15.48,2.1,21.3,8.41,10.53,25.81,8.59,31.18,0,2.86-4.57,3-10.92,1.57-14.98l-17.33.17-.08,6.57,10.48.27h0ZM12.22,569.19c5.3,0,9.71.19,13.59-.74,6.98-1.67,9.47-8.85,8.24-15.19-1.07-5.54-6.47-9.85-12.99-9.83l-16.7.05-.02,38.01,7.78.18.09-12.48h0ZM93.3,581.83l8.47-.47-8.76-13.65c6.21-2.44,8.8-8.14,7.67-14.25-.92-4.99-5.64-9.79-11.74-9.86l-18.37-.21-.07,38.12,7.77.16.11-12.88,6.97.19,7.95,12.85h0ZM150.83,581.25c12.68,3.67,24.51-4.25,25.83-16.6,1.22-11.38-7.19-21.68-19.77-21.76-10.06-.06-18.34,6.98-19.7,16.52s3.43,18.89,13.65,21.84h0ZM221.44,569.12c5.29.09,10.01.31,14.05-.85,6.68-1.92,9.07-8.77,7.97-14.59-1.06-5.64-6.15-10.17-12.53-10.19l-17.31-.06-.06,38.11,7.87.08.02-12.51h-.01ZM304.88,565.75l-.31-6.9-16.61.13.2-8.7,18.99.02.04-6.88-26.94.06-.02,38.17,27.13.03-.24-6.84-19.14.07.08-9.08,16.8-.07h.02ZM368.08,581.78l8.75-.28-9.11-13.75c6.18-2.65,9-8.25,7.8-14.29-.99-4.98-5.66-9.79-11.79-9.85l-18.79-.18v38.07l7.8.15.03-13,7.42.36,7.9,12.77h0ZM430.83,581.6l-.08-31.39,11.44.18.16-6.98-30.83.03-.05,6.78,11.6.29-.05,30.96,7.8.12h0ZM513.95,543.8l-8.82-.23-9.69,15.3-9.7-15.4-8.72.27,14.63,22.77-.11,15.12,7.71-.08.03-15.39,14.67-22.35h0ZM631.12,581.67l7.45-.12-.03-38.01-7.5.15-12.14,23.07-12.05-22.77-7.71-.43v37.89l7.4.18.35-22.45,8.73,16.17c.65,1.21,3.49,2.48,4.46,1.89.77-.47,1.87-1.83,2.35-2.72l8.4-15.73.28,22.87h.01ZM701.71,574.24l2.76,7.31,8.18.04-15.28-37.99-8.23.17-15.17,37.75,8.22.04,2.78-7.44,16.74.13h0ZM780.56,581.49l-.02-37.93-7.61.05-.22,24.55-17.47-24.43-7.3-.16v37.92l7.56.15.22-24.53,17.82,24.5,7.02-.13h0ZM843.12,574.03l2.65,7.59,8.15-.19-15.21-37.86-8.03.07-15.42,37.88,8.13.12,2.89-7.44,16.83-.15v-.02ZM982.39,565.8l-.31-6.87-16.34.08.03-8.75,18.82.13.14-6.97-26.69.09-.02,38.12,27.01.06-.3-6.85-19.07-.04.06-9.03,16.66.04h.01ZM1052.46,581.66l7.64-.5-.02-37.61-7.5.04-11.92,23.14-12.25-23.21-7.22.37.05,37.66,7.31.08.18-22.54,8.91,16.3c.58,1.07,3.24,2.57,4.18,1.94.75-.5,1.87-1.93,2.34-2.84l8.02-15.25.29,22.42h-.01ZM1121.41,565.76l-.38-6.88-16.47.09.15-8.69,18.74.04.06-6.91-26.7.12v38.13l27.06.02-.25-6.86-18.98.03v-8.98l16.76-.11h0ZM1192.65,581.55l.03-37.99-7.64-.07-.19,24.42-17.72-24.28-7.13-.07.04,37.99,7.52.03.19-24.5,17.83,24.33,7.07.14ZM1247.18,581.51l-.07-31.35,11.53.33v-7.04h-30.67v6.96l11.41.02-.02,31.15,7.82-.08h0Z"/>
  <polygon class="st3" points="1178.71 367.61 1178.67 167.72 1095.58 319.12 1036.9 319.23 949.84 166.03 949.73 367.55 865.34 367.62 865.34 .07 948.82 0 1006.76 100.68 1065.88 202.47 1181.53 .04 1259.17 .06 1259.18 367.61 1178.71 367.61"/>
  <path class="st3" d="M382.65,285.74l.12,81.84H45.33C20.8,365.86.11,345.98.13,320.69L.28,44.25C.3,18.47,23.31-.71,48.13.05h334.61l-.07,81.73-295.4-.06-.02,204.04,295.41-.02h-.01Z"/>
  <path class="st3" d="M638.19,163.87l86.37-.05-.08-82.1h-201.98l.05,285.87-85.92.04.04-367.56,335.68.29c21.1.02,36.8,19.14,38.14,38.64l-.32,165.76c-.04,22.27-20.08,38.72-41.61,38.13h-130.45l.07-79.02h.01Z"/>
  <polygon class="st1" points="624.81 242.77 560.18 242.73 560.25 163.91 624.84 163.89 624.81 242.77"/>
  <polygon class="st1" points="298.55 490.7 287.81 490.74 262.02 454.24 261.82 490.76 250.67 490.72 250.65 434.46 261.14 434.36 286.8 470.17 287.19 434.47 298.47 434.42 298.55 490.7"/>
  <path class="st1" d="M502.25,491.65c-18.09-1.17-29.3-16.18-27.04-33.34,1.78-13.5,11.85-23.3,25.49-24.74,17.71-1.86,32.48,11.19,32.45,29.1-.03,16.88-13.41,30.11-30.91,28.98h.01ZM521.5,465.03c1.56-11.64-6.73-21.12-17.33-21.24s-18.62,8.99-17.81,19.9c.71,9.6,7.58,17.18,16.81,17.46s16.97-6.05,18.33-16.13h0Z"/>
  <path class="st1" d="M150.49,491.68c-18.65.83-31.72-14.06-30.24-31.83,1.32-15.78,13.78-27.02,29.75-26.41,15.22.58,27.45,11.89,28.26,27.11.88,16.59-10.59,30.36-27.78,31.13h.01ZM166.84,462.18c-.06-11.05-8.37-18.52-18.38-18.41-9.66.11-17.18,8.68-17.11,18.82s7.97,18.94,17.97,18.6c9.78-.33,17.57-8.17,17.52-19.01Z"/>
  <path class="st1" d="M837.33,462.12c.17,16.93-11.46,28.74-27.88,28.69l-22.02-.07.03-56.39,23.99.17c15.42.11,25.73,12.34,25.89,27.6h-.01ZM825.85,463.15c.2-8.55-4.15-16.6-12.58-18.15l-14.22-.58v36.23l11.34-.24c9.29-.2,15.23-7.66,15.46-17.26h0Z"/>
  <path class="st1" d="M1259.86,462.18c.07,15.1-9.36,28.2-24.74,28.35l-24.8.24.02-56.37,25.68.32c14.83.18,23.77,12.91,23.84,27.46ZM1239.71,478.69c6.75-3.58,8.74-10.91,8.4-17.43-.3-5.79-2.87-12.53-9.16-15.32-5.13-2.28-11.85-1.65-17.42-1.32l.19,35.86c6.29.07,12.79.97,17.98-1.79h.01Z"/>
  <path class="st1" d="M933.31,479.72l-24.21-.13-4.42,11.22-12.05-.13,22.11-56.07,12.25-.28,22.52,56.31-11.95.15-4.25-11.06h0ZM929.58,469.65l-8.59-21.69-8.37,21.62,16.97.07h0Z"/>
  <polygon class="st1" points="1141.57 467.19 1116.96 466.88 1116.69 480.69 1145.14 480.66 1145.25 490.76 1105.4 490.73 1105.51 434.38 1144.48 434.35 1144.62 444.27 1116.73 444.27 1116.83 457.19 1141.09 457.09 1141.57 467.19"/>
  <path class="st1" d="M398.78,490.18c-12.23,3.69-25.26.78-32.73-9.16l8.22-7.26c4.64,7.13,13.65,9.97,21.91,6.15,1.43-.66,2.99-4.16,2.84-5.73-.16-1.74-2.67-4.29-4.73-4.89l-16.37-4.74c-6.6-1.91-9.91-8.3-9.91-14.32,0-6.58,3.72-12.56,10.42-14.95,10.7-3.82,22.37-1.96,30.81,6.89l-7.59,7.93c-4.89-5.95-11.06-7.91-18.47-5.78-1.62.47-3.7,3.29-3.78,4.86-.11,1.95,1.93,5.22,3.96,5.77l15,4.12c7.45,2.05,12.11,7.85,12.25,15.15.14,7.08-4.11,13.61-11.83,15.94v.02Z"/>
  <path class="st1" d="M43.01,474.15l8.2,7.15c-11.18,14.5-34.49,13.91-45.56-1.21-8.14-11.12-7.42-26.82,1.7-37.07,11.54-12.97,31.97-12.77,43.65-.1l-7.85,7.78c-5.19-6.18-13.18-8.69-20.39-5.86-7.01,2.76-11.25,9.79-11.15,17.86.1,7.64,4,14.34,10.75,17.16,6.9,2.88,14.67,1.5,20.63-5.71h.02Z"/>
  <polygon class="st1" points="1026.52 490.7 1015.23 490.71 1015.23 444.48 998.5 444.28 998.37 434.34 1043.36 434.37 1043.45 444.29 1026.56 444.21 1026.52 490.7"/>
  <polygon class="st1" points="640.67 480.68 640.76 490.75 602.57 490.77 602.59 434.41 613.97 434.51 613.96 480.58 640.67 480.68"/>
  <path class="st2" d="M631.12,581.67l-.28-22.87-8.4,15.73c-.48.9-1.58,2.25-2.35,2.72-.96.59-3.8-.68-4.46-1.89l-8.73-16.17-.35,22.45-7.41-.18v-37.89l7.72.43,12.05,22.77,12.14-23.07,7.5-.15.03,38.01-7.45.12h-.01Z"/>
  <path class="st2" d="M1052.46,581.66l-.29-22.42-8.02,15.25c-.48.91-1.59,2.34-2.34,2.84-.94.63-3.6-.87-4.18-1.94l-8.91-16.3-.18,22.54-7.31-.08-.05-37.66,7.22-.37,12.25,23.21,11.92-23.14,7.5-.04.02,37.61-7.64.5h.01Z"/>
  <polygon class="st2" points="780.56 581.49 773.54 581.62 755.73 557.12 755.5 581.64 747.93 581.5 747.94 543.58 755.24 543.73 772.71 568.16 772.93 543.61 780.54 543.56 780.56 581.49"/>
  <polygon class="st2" points="1192.65 581.55 1185.59 581.42 1167.75 557.08 1167.56 581.58 1160.04 581.55 1160.01 543.56 1167.13 543.64 1184.85 567.91 1185.04 543.5 1192.68 543.57 1192.65 581.55"/>
  <path class="st2" d="M368.08,581.78l-7.9-12.77-7.42-.36-.03,13-7.79-.15v-38.07l18.78.18c6.13.06,10.8,4.87,11.79,9.85,1.2,6.04-1.62,11.64-7.8,14.29l9.11,13.75-8.75.28h.01ZM361.66,561.97c3.55,0,6.32-2.61,6.25-5.86s-2.78-5.84-6.24-5.86l-8.88-.05-.04,11.79,8.92-.02h-.01Z"/>
  <path class="st2" d="M150.83,581.25c-10.21-2.95-14.99-12.46-13.65-21.84s9.65-16.57,19.7-16.52c12.59.07,20.99,10.37,19.77,21.76-1.32,12.35-13.14,20.27-25.83,16.6h0ZM168.74,561.15c-.76-7.47-6.89-11.69-13.13-11.13s-10.75,5.76-10.81,12.58c-.07,7.41,5.57,12.79,12.5,12.49s12.25-6,11.44-13.94Z"/>
  <path class="st2" d="M93.3,581.83l-7.95-12.85-6.97-.19-.11,12.88-7.77-.16.07-38.12,18.37.21c6.1.07,10.82,4.87,11.74,9.86,1.13,6.11-1.46,11.82-7.67,14.25l8.76,13.65-8.47.47h0ZM86.8,561.94c3.76,0,6.41-2.34,6.36-5.88-.04-2.66-2.38-5.71-5.43-5.73l-9.47-.04.04,11.65h8.5Z"/>
  <path class="st2" d="M914.48,566.98l-10.48-.27.08-6.57,17.33-.17c1.43,4.07,1.29,10.41-1.57,14.98-5.37,8.6-22.77,10.53-31.18,0-4.64-5.81-5.45-14.08-2.1-21.3,2.77-5.96,8.62-9.63,14.39-10.47,6.75-.97,12.55.35,18.42,5.86l-5.14,5.01c-5.07-4.7-11.65-5.43-16.69-1.83-5.32,3.8-6.62,11.23-3.29,16.99,3.09,5.33,10.13,7.72,16.46,4.47,2.07-1.06,3.22-3.46,3.77-6.71h0Z"/>
  <path class="st2" d="M701.71,574.24l-16.74-.13-2.78,7.44-8.22-.04,15.17-37.75,8.23-.17,15.28,37.99-8.18-.04-2.76-7.31h0ZM698.96,567.35l-5.82-14.9-5.44,14.97,11.26-.08h0Z"/>
  <path class="st2" d="M843.12,574.03l-16.83.15-2.89,7.44-8.13-.12,15.42-37.88,8.03-.07,15.21,37.86-8.15.19-2.65-7.59v.02ZM840.34,567.51l-5.63-14.92-5.63,14.59,11.26.34h0Z"/>
  <polygon class="st1" points="718.77 490.59 707.21 490.75 707.31 434.48 718.71 434.41 718.77 490.59"/>
  <polygon class="st2" points="982.39 565.8 965.73 565.76 965.66 574.79 984.74 574.84 985.04 581.69 958.03 581.62 958.05 543.5 984.74 543.41 984.6 550.38 965.78 550.25 965.74 559 982.08 558.92 982.39 565.8"/>
  <polygon class="st2" points="1121.41 565.76 1104.65 565.87 1104.65 574.85 1123.62 574.82 1123.88 581.67 1096.83 581.66 1096.82 543.52 1123.52 543.41 1123.45 550.31 1104.71 550.27 1104.56 558.97 1121.02 558.88 1121.41 565.76"/>
  <polygon class="st2" points="304.88 565.75 288.08 565.82 287.99 574.9 307.13 574.83 307.37 581.67 280.23 581.64 280.25 543.48 307.19 543.41 307.15 550.29 288.16 550.28 287.96 558.97 304.57 558.84 304.88 565.75"/>
  <path class="st2" d="M221.44,569.12l-.02,12.51-7.87-.08.06-38.11,17.31.06c6.38.02,11.47,4.55,12.53,10.19,1.1,5.82-1.29,12.67-7.97,14.59-4.03,1.16-8.76.93-14.05.85h.01ZM232.68,561.65c3.27-.23,3.87-5.68,2.69-8.01-.92-1.82-3.98-3.5-6.33-3.48l-7.71.07.09,12.22,11.26-.8h0Z"/>
  <path class="st2" d="M12.22,569.19l-.09,12.48-7.78-.18.02-38.01,16.7-.05c6.52-.02,11.92,4.29,12.99,9.83,1.23,6.34-1.27,13.51-8.24,15.19-3.88.93-8.3.75-13.59.74h0ZM23.25,561.8c2.65-.18,4.08-5.16,3.32-7.17-.96-2.56-3.64-4.43-6.44-4.43h-7.89l-.12,12.37,11.13-.77Z"/>
  <polygon class="st2" points="1247.18 581.51 1239.36 581.59 1239.38 550.44 1227.96 550.42 1227.97 543.47 1258.65 543.46 1258.64 550.5 1247.11 550.17 1247.18 581.51"/>
  <polygon class="st2" points="513.95 543.8 499.28 566.16 499.25 581.55 491.54 581.63 491.65 566.51 477.01 543.73 485.73 543.47 495.44 558.87 505.13 543.57 513.95 543.8"/>
  <polygon class="st2" points="430.83 581.6 423.02 581.48 423.08 550.51 411.47 550.23 411.52 543.44 442.35 543.41 442.19 550.39 430.75 550.21 430.83 581.6"/>
</svg>